# xmcd
#
# Track frame offsets:
#	150
#	18728
#	39937
#	57384
#	72670
#	89867
#	103853
#	122305
#	141611
#	158677
#	185016
#
# Disc length: 2642 seconds
#
# Revision: 0
# Processed by: cddbd v1.5.2PL0 Copyright (c) Steve Scherf et al.
# Submitted via: EasyCDDAExtractor 2010.6.0.0
#
DISCID=a50a500b
DTITLE=Billy Ray Cyrus - It Won't Be The Last
DYEAR=1900
DGENRE=Country
TTITLE0=In The Heart Of A Woman
TTITLE1=Talk Some
TTITLE2=Somebody New
TTITLE3=Only Time Will Tell
TTITLE4=Ain't Your Dog No More
TTITLE5=Words By Heart
TTITLE6=It Won't Be The Last
TTITLE7=Throwin' Stones
TTITLE8=Right Face, Wrong Time
TTITLE9=Dreamin' In Color, Livin' In Black And White
TTITLE10=When I'm Gone
EXTD=
EXTT0=
EXTT1=
EXTT2=
EXTT3=
EXTT4=
EXTT5=
EXTT6=
EXTT7=
EXTT8=
EXTT9=
EXTT10=
PLAYORDER=
